<svg id="Layer_3" data-name="Layer 3" xmlns="http://www.w3.org/2000/svg" viewBox="0 0 30 30"><defs><style>.cls-1{fill:#fff;}</style></defs><path class="cls-1" d="M2.32,10.76l1.22.13a.33.33,0,0,0,.17-.09c0-.12-.07-.27-.16-.32a1.14,1.14,0,0,0-.46-.08l-.81-.1-.35-.07c-.28-.42-.14-.82.41-1A3.63,3.63,0,0,1,3,9.22a1.22,1.22,0,0,0,.85-.17A.2.2,0,0,1,4,9c.82.1,1.67.12,2.13,1a3.56,3.56,0,0,0,3.24,2,3.19,3.19,0,0,1,.93.24l-.23,0h-5a1.18,1.18,0,0,1-.87-.39,1.29,1.29,0,0,0-.55-.27c-.4-.11-.84-.14-1.23-.28S2.12,11,2.32,10.76Z"/><path class="cls-1" d="M15.22,13.19c.82,0,1.62,0,2.41,0a1,1,0,0,1,1,.83A1,1,0,0,1,18,15.2s-.05,0-.09.08l.78,1.5c-.42,0-.77,0-1.13,0-.09,0-.19-.11-.24-.19a5,5,0,0,1-.39-.81c-.11-.27-.25-.42-.6-.28v1.27H15.22Zm1.14,1.47a4.21,4.21,0,0,0,.8,0,.45.45,0,0,0,.27-.35c0-.1-.17-.28-.28-.3a5.19,5.19,0,0,0-.79,0Z"/><path class="cls-1" d="M6.74,16.77H5.61c0-.12,0-.23,0-.35,0-.68,0-1.36,0-2.05,0-.24-.08-.31-.32-.3s-.57,0-.87,0v-.89H7.89v.88H6.74Z"/><path class="cls-1" d="M11.05,15.78a.88.88,0,0,1-.48.84,2,2,0,0,1-2.33-.31,1.56,1.56,0,0,1-.17-1.52,1.17,1.17,0,0,1,1-.8A3.1,3.1,0,0,1,10,14c.78.12,1.15.64,1.1,1.56H9a.51.51,0,0,0,.31.6.59.59,0,0,0,.72-.23.34.34,0,0,1,.21-.13C10.51,15.77,10.76,15.78,11.05,15.78ZM9,15.06h1a.4.4,0,0,0-.4-.45C9.28,14.57,9.11,14.7,9,15.06Z"/><path class="cls-1" d="M14.55,15.56h-2a.51.51,0,0,0,.31.58.58.58,0,0,0,.72-.21.3.3,0,0,1,.21-.14c.26,0,.53,0,.8,0a.84.84,0,0,1-.44.82,2,2,0,0,1-2.38-.31,1.54,1.54,0,0,1-.14-1.55,1.19,1.19,0,0,1,1-.75,2.89,2.89,0,0,1,.83,0A1.25,1.25,0,0,1,14.55,15.56Zm-1-.49c0-.36-.18-.47-.5-.46a.43.43,0,0,0-.47.46Z"/><path class="cls-1" d="M20,15.56c0,.31.08.53.35.59s.56.09.71-.25a.26.26,0,0,1,.19-.12H22c.08.62-.37,1-1.29,1.06S19,16.4,19,15.48A1.37,1.37,0,0,1,20.56,14a1.36,1.36,0,0,1,1.52,1.61H20Zm1-.5c0-.37-.2-.5-.57-.45s-.4.21-.35.45Z"/><path class="cls-1" d="M23.9,15.88a2.59,2.59,0,0,0-.24.39.75.75,0,0,1-.92.52,3.06,3.06,0,0,0-.54,0c.3-.41.55-.79.84-1.14A.43.43,0,0,0,23,15c-.25-.29-.46-.61-.72-1,.41,0,.76,0,1.1,0,.07,0,.15.1.2.18s.21.34.33.52c.2-.24.36-.57.61-.68a2.7,2.7,0,0,1,1,0l-1,1.33,1,1.44c-.4,0-.76,0-1.11,0-.07,0-.15-.11-.19-.18S24.05,16.14,23.9,15.88Z"/><path class="cls-1" d="M10.85,20.52c-.33-.27-.46-.09-.56.08a.65.65,0,0,1-.89.33.66.66,0,0,0-.25,0l-1.07,0v-.14c.14,0,.28,0,.43,0a1.14,1.14,0,0,0,1.16-.81,5.08,5.08,0,0,0,.3-2.13h1.54A5.31,5.31,0,0,0,10.85,20.52Z"/><path class="cls-1" d="M12.78,20.77l.36-.07a.76.76,0,0,0,.73-.64,1.12,1.12,0,0,0-.51-1.39,7,7,0,0,1-1-.84l0-.09a10.46,10.46,0,0,0,1.12,0,.64.64,0,0,1,.73.43c.14.29.34.54.5.82a.53.53,0,0,1,.1.34,1.54,1.54,0,0,0,0,1.26C14.19,21.2,13.47,20.79,12.78,20.77Z"/><path class="cls-1" d="M28.18,19.11c-.53-.15-1.05-.34-1.58-.46a29.14,29.14,0,0,0-5.75-.59,21.09,21.09,0,0,1-3-.31h.31c1.69,0,3.39,0,5.08,0a7.45,7.45,0,0,1,2.73.44c.49.18,1,.32,1.48.51a5.49,5.49,0,0,1,.71.39Z"/></svg>